<svg width="16px" height="16px" viewBox="0 0 16 16" version="1.1" xmlns="http://www.w3.org/2000/svg" xmlns:xlink="http://www.w3.org/1999/xlink">
    <!-- Generator: Sketch 64 (93537) - https://sketch.com -->
    <title>Unlimited-guests-16px</title>
    <desc>Created with Sketch.</desc>
    <g id="Visual" stroke="none" stroke-width="1" fill="none" fill-rule="evenodd">
        <g id="Company-Detail" transform="translate(-24.000000, -294.000000)" stroke="#FFFFFF">
            <g id="Navigation" transform="translate(0.000000, 22.000000)">
                <g id="编组" transform="translate(0.000000, 256.000000)">
                    <g id="一级导航">
                        <g id="Unlimited-guests-16px" transform="translate(24.000000, 16.000000)">
                            <path d="M8,6.5 C9.93299662,6.5 11.5,8.06700338 11.5,10 L11.5,15.5 L4.5,15.5 L4.5,10 C4.5,8.06700338 6.06700338,6.5 8,6.5 Z M3.5,6.777 C3.19725672,6.59732093 2.85204429,6.50169708 2.5,6.5 C1.3954305,6.5 0.5,7.3954305 0.5,8.5 L0.5,12.5 L2.833,12.5" id="形状"></path>
                            <path d="M12.5,6.777 C12.8027433,6.59732093 13.1479557,6.50169708 13.5,6.5 C14.6045695,6.5 15.5,7.3954305 15.5,8.5 L15.5,12.5 L13.167,12.5" id="路径"></path>
                            <path d="M3,4.5 C2.17157288,4.5 1.5,3.82842712 1.5,3 C1.5,2.17157288 2.17157288,1.5 3,1.5 C3.82842712,1.5 4.5,2.17157288 4.5,3 C4.5,3.82842712 3.82842712,4.5 3,4.5 L3,4.5 Z M13,4.5 C12.1715729,4.5 11.5,3.82842712 11.5,3 C11.5,2.17157288 12.1715729,1.5 13,1.5 C13.8284271,1.5 14.5,2.17157288 14.5,3 C14.5,3.82842712 13.8284271,4.5 13,4.5 Z M8,4.5 C6.8954305,4.5 6,3.6045695 6,2.5 C6,1.3954305 6.8954305,0.5 8,0.5 C9.1045695,0.5 10,1.3954305 10,2.5 C10,3.6045695 9.1045695,4.5 8,4.5 Z" id="形状"></path>
                        </g>
                    </g>
                </g>
            </g>
        </g>
    </g>
</svg>