<svg width="14px" height="14px" viewBox="0 0 14 14" version="1.1" xmlns="http://www.w3.org/2000/svg" xmlns:xlink="http://www.w3.org/1999/xlink">
    <!-- Generator: Sketch 64 (93537) - https://sketch.com -->
    <title>Search</title>
    <desc>Created with Sketch.</desc>
    <g id="Archive" stroke="none" stroke-width="1" fill="none" fill-rule="evenodd">
        <g id="Company-List" transform="translate(-1208.000000, -69.000000)">
            <g id="Tool-Bar" transform="translate(256.000000, 44.000000)">
                <g id="Search" transform="translate(951.000000, 24.000000)">
                    <rect id="Area" fill-opacity="0" fill="#FFFFFF" x="0" y="0" width="16" height="16"></rect>
                    <path d="M14.8359375,14.0390625 L11.621875,10.8265625 C12.4828125,9.7875 13,8.4546875 13,7 C13,3.6859375 10.3140625,1 7,1 C3.6859375,1 1,3.6859375 1,7 C1,10.3140625 3.6859375,13 7,13 C8.4546875,13 9.7875,12.4828125 10.8265625,11.621875 L14.040625,14.8359375 C14.15,14.9453125 14.29375,15 14.4390625,15 C14.584375,15 14.7265625,14.9453125 14.8375,14.8359375 C15.0546875,14.615625 15.0546875,14.259375 14.8359375,14.0390625 Z M8.896875,11.4921875 C8.296875,11.746875 7.659375,11.875 7,11.875 C6.340625,11.875 5.703125,11.746875 5.103125,11.4921875 C4.5234375,11.246875 4.0015625,10.8953125 3.553125,10.446875 C3.1046875,9.9984375 2.753125,9.4765625 2.5078125,8.896875 C2.253125,8.296875 2.125,7.659375 2.125,7 C2.125,6.340625 2.253125,5.703125 2.5078125,5.103125 C2.753125,4.5234375 3.1046875,4.0015625 3.553125,3.553125 C4.0015625,3.1046875 4.5234375,2.753125 5.103125,2.5078125 C5.703125,2.253125 6.340625,2.125 7,2.125 C7.659375,2.125 8.296875,2.253125 8.896875,2.5078125 C9.4765625,2.753125 9.9984375,3.1046875 10.446875,3.553125 C10.8953125,4.0015625 11.246875,4.5234375 11.4921875,5.103125 C11.746875,5.703125 11.875,6.340625 11.875,7 C11.875,7.659375 11.746875,8.296875 11.4921875,8.896875 C11.246875,9.4765625 10.8953125,9.9984375 10.446875,10.446875 C9.9984375,10.8953125 9.478125,11.246875 8.896875,11.4921875 Z" id="Shape" fill="#666666" fill-rule="nonzero"></path>
                </g>
            </g>
        </g>
    </g>
</svg>