<svg width="112px" height="32px" viewBox="0 0 112 32" version="1.1" xmlns="http://www.w3.org/2000/svg" xmlns:xlink="http://www.w3.org/1999/xlink">
    <!-- Generator: Sketch 64 (93537) - https://sketch.com -->
    <title>Logo</title>
    <desc>Created with Sketch.</desc>
    <g id="Visual" stroke="none" stroke-width="1" fill="none" fill-rule="evenodd">
        <g id="权限管理-/-超级管理员" transform="translate(-76.000000, -102.000000)" fill="#FFFFFF" fill-rule="nonzero">
            <g id="Navigation" transform="translate(0.000000, 22.000000)">
                <g id="Logo" transform="translate(76.000000, 80.000000)">
                    <path d="M108.781609,0 L108.781609,6.4 L97.5172414,6.4 C95.7397732,6.4 94.2988506,7.8326888 94.2988506,9.6 C94.2988506,11.3489017 95.7099103,12.770116 97.4618063,12.7995349 L97.5172414,12.8 L102.344828,12.8 C107.677232,12.8 112,17.0980664 112,22.4 C112,27.6489143 107.763255,31.9139383 102.504494,31.9987139 L102.344828,32 L88.6666667,32 L86.2528736,25.6 L102.344828,25.6 C104.122296,25.6 105.563218,24.1673112 105.563218,22.4 C105.563218,20.6510983 104.152159,19.229884 102.400263,19.2004651 L97.5172414,19.2 C92.1848369,19.2 87.862069,14.9019336 87.862069,9.6 C87.862069,4.35108574 92.0988138,0.0860617148 97.3575754,0.00128612572 L97.5172414,0 L108.781609,0 Z M70.1609195,0 C77.2707922,0 83.0344828,5.7307552 83.0344828,12.8 C83.0344828,16.3631832 81.589772,19.6232918 79.1978232,21.9603127 L83.0344828,32 L75.954023,32 L71.9685517,21.572 L71.045977,19.2 C74.5499219,18.730314 76.5977011,15.7846175 76.5977011,12.8 C76.5977011,9.30072383 73.7732046,6.45737448 70.2673635,6.40085742 L70.1609195,6.4 L65.3325517,6.399 L65.3333333,32 L58.8965517,32 L58.8965517,0 L70.1609195,0 Z M50.7857471,19.2 L55.6781609,32 L48.5977011,32 L43.7057471,19.2 L50.7857471,19.2 Z M43.4482759,0 L31.2183908,32 L24.137931,32 L36.3678161,0 L43.4482759,0 Z M28.9655172,0 L26.3908046,6.4 L17.701,6.4 L17.7011494,32 L11.2643678,32 L11.264,6.4 L0,6.4 L0,0 L28.9655172,0 Z" id="TARS"></path>
                </g>
            </g>
        </g>
    </g>
</svg>