<svg width="76px" height="32px" viewBox="0 0 76 32" version="1.1" xmlns="http://www.w3.org/2000/svg" xmlns:xlink="http://www.w3.org/1999/xlink">
    <!-- Generator: Sketch 64 (93537) - https://sketch.com -->
    <title>TRIM</title>
    <desc>Created with Sketch.</desc>
    <g id="Visual" stroke="none" stroke-width="1" fill="none" fill-rule="evenodd">
        <g id="Company-Detail" transform="translate(-90.000000, -110.000000)" fill="#FFFFFF" fill-rule="nonzero">
            <g id="Navigation" transform="translate(0.000000, 22.000000)">
                <g id="Logo" transform="translate(0.000000, 24.000000)">
                    <path d="M100.977778,96 L100.977778,68.2105263 L166,68.2105263 L166,64 L90,64 L90,68.2105263 L96.7555556,68.2105263 L96.7555556,96 L100.977778,96 Z M111.955556,96 L111.955556,85.8947368 L114.488889,85.8947368 L120.4,96 L125.466667,96 L119.133333,85.4736842 C122.088889,84.6315789 123.777778,82.9473684 123.777778,79.1578947 C123.777778,75.3684211 121.244444,72.4210526 116.177778,72.4210526 L107.733333,72.4210526 L107.733333,96 L111.955556,96 Z M116.177778,81.6842105 L111.955556,81.6842105 L111.955556,76.6315789 L116.177778,76.6315789 C118.288889,76.6315789 119.555556,77.4736842 119.555556,79.1578947 C119.555556,80.8421053 118.288889,81.6842105 116.177778,81.6842105 Z M133.066667,96 L133.066667,72.4210526 L128.844444,72.4210526 L128.844444,96 L133.066667,96 Z M142.355556,96 L142.355556,81.2631579 L147,93.4736842 L150.377778,93.4736842 L155.022222,81.2631579 L155.022222,96 L159.244444,96 L159.244444,72.4210526 L154.177778,72.4210526 L148.688889,87.1578947 L143.2,72.4210526 L138.133333,72.4210526 L138.133333,96 L142.355556,96 Z" id="TRIM"></path>
                </g>
            </g>
        </g>
    </g>
</svg>