<svg width="24px" height="24px" viewBox="0 0 24 24" version="1.1" xmlns="http://www.w3.org/2000/svg" xmlns:xlink="http://www.w3.org/1999/xlink">
    <!-- Generator: Sketch 64 (93537) - https://sketch.com -->
    <title>Back</title>
    <desc>Created with Sketch.</desc>
    <g id="Visual" stroke="none" stroke-width="1" fill="none" fill-rule="evenodd">
        <g id="Company-Detail" transform="translate(-288.000000, -42.000000)" stroke="#666666">
            <g id="Tool-Bar" transform="translate(256.000000, 22.000000)">
                <g id="Back" transform="translate(44.000000, 32.000000) rotate(-90.000000) translate(-44.000000, -32.000000) translate(32.000000, 20.000000)">
                    <path d="M18.8722296,0.5 L5.1277704,0.5 C3.48633153,0.5 2.88407891,0.653234454 2.28210802,0.975172007 C1.71867923,1.27649702 1.27649702,1.71867923 0.975172007,2.28210802 C0.653234454,2.88407891 0.5,3.48633153 0.5,5.1277704 L0.5,18.8722296 C0.5,20.5136685 0.653234454,21.1159211 0.975172007,21.717892 C1.27649702,22.2813208 1.71867923,22.723503 2.28210802,23.024828 C2.88407891,23.3467655 3.48633153,23.5 5.1277704,23.5 L18.8722296,23.5 C20.5136685,23.5 21.1159211,23.3467655 21.717892,23.024828 C22.2813208,22.723503 22.723503,22.2813208 23.024828,21.717892 C23.3467655,21.1159211 23.5,20.5136685 23.5,18.8722296 L23.5,5.1277704 C23.5,3.48633153 23.3467655,2.88407891 23.024828,2.28210802 C22.723503,1.71867923 22.2813208,1.27649702 21.717892,0.975172007 C21.1159211,0.653234454 20.5136685,0.5 18.8722296,0.5 Z" id="Area" transform="translate(12.000000, 12.000000) scale(-1, -1) rotate(90.000000) translate(-12.000000, -12.000000) "></path>
                    <polyline id="路径" points="8 13.5 10.3818359 11.1181641 12 9.5 16 13.5"></polyline>
                </g>
            </g>
        </g>
    </g>
</svg>