<svg width="16px" height="17px" viewBox="0 0 16 17" version="1.1" xmlns="http://www.w3.org/2000/svg" xmlns:xlink="http://www.w3.org/1999/xlink">
    <!-- Generator: Sketch 64 (93537) - https://sketch.com -->
    <title>Creator-lab-16px</title>
    <desc>Created with Sketch.</desc>
    <g id="Visual" stroke="none" stroke-width="1" fill="none" fill-rule="evenodd">
        <g id="Company-Detail" transform="translate(-24.000000, -390.000000)">
            <g id="Navigation" transform="translate(0.000000, 22.000000)">
                <g id="编组" transform="translate(0.000000, 256.000000)">
                    <g id="一级导航" transform="translate(0.000000, 96.000000)">
                        <g id="Creator-lab-16px" transform="translate(25.000000, 16.000000)">
                            <path d="M4.446,3.851 C4.989,1.829 5.917,0.503 6.971,0.503 C8.644,0.503 10,3.861 10,8.003 C10,12.145 8.644,15.503 6.971,15.503 C5.5,15.503 4.274,12.91 4,9.467" id="Path" stroke="#FFFFFF"></path>
                            <path d="M4.631,12.465 C2.591,13.19 0.959,13.205 0.427,12.347 C-0.418,10.983 1.84,7.932 5.47,5.53 C9.1,3.13 12.728,2.288 13.573,3.652 C14.316,4.852 12.659,7.357 9.778,9.577" id="Path" stroke="#FFFFFF"></path>
                            <path d="M6.994,4.605 C3.927,2.936 1.152,2.483 0.427,3.653 C-0.418,5.017 1.84,8.068 5.47,10.47 C9.1,12.87 12.728,13.712 13.573,12.348 C14.145,11.426 13.293,9.759 11.562,8.017" id="Path" stroke="#FFFFFF"></path>
                            <circle id="Oval" fill="#FFFFFF" fill-rule="nonzero" cx="7" cy="8" r="1"></circle>
                        </g>
                    </g>
                </g>
            </g>
        </g>
    </g>
</svg>